<?xml version="1.0" encoding="utf-8"?>
<!-- Generator: Adobe Illustrator 18.1.1, SVG Export Plug-In . SVG Version: 6.00 Build 0)  -->
<!DOCTYPE svg PUBLIC "-//W3C//DTD SVG 1.1//EN" "http://www.w3.org/Graphics/SVG/1.1/DTD/svg11.dtd">
<svg version="1.1" id="Layer_1" xmlns="http://www.w3.org/2000/svg" xmlns:xlink="http://www.w3.org/1999/xlink" x="0px" y="0px"
	 viewBox="0 0 493.8 173.9" enable-background="new 0 0 493.8 173.9" xml:space="preserve">
<g>
	<path d="M468,0l3.4,0c0.9,0,1.9,0,2.8,0.1c1.7,0,3.7,0.1,5.7,0.5c1.8,0.3,3.3,0.8,4.8,1.6c1.5,0.8,2.8,1.7,4,2.9
		c1.2,1.2,2.2,2.5,2.9,4c0.7,1.5,1.2,3,1.6,4.8c0.3,1.9,0.4,4,0.5,5.7c0,0.9,0,1.9,0,2.9c0,1.1,0,2.3,0,3.4v122.3c0,1.1,0,2.3,0,3.4
		c0,0.9,0,1.9,0,2.8c0,1.7-0.1,3.7-0.5,5.7c-0.3,1.8-0.8,3.3-1.6,4.8c-0.8,1.5-1.7,2.8-2.9,4c-1.2,1.2-2.5,2.1-4,2.9
		c-1.5,0.8-3,1.3-4.8,1.6c-2,0.3-4.1,0.5-5.7,0.5c-0.9,0-1.9,0-2.8,0c-1.1,0-2.3,0-3.4,0H25.8c0,0,0,0,0,0c-1.1,0-2.3,0-3.4,0
		c-0.9,0-1.9,0-2.8,0c-1.6,0-3.7-0.2-5.7-0.5c-1.8-0.3-3.3-0.8-4.8-1.6c-1.5-0.7-2.8-1.7-4-2.9c-1.2-1.2-2.2-2.5-2.9-4
		c-0.7-1.5-1.2-3-1.6-4.8c-0.4-1.9-0.5-4-0.5-5.7c0-0.9-0.1-1.9-0.1-2.8v-2.7v-0.7V25.8v-0.7v-2.7c0-1,0-1.9,0.1-2.9
		c0-1.7,0.1-3.7,0.5-5.7C0.9,12,1.4,10.5,2.1,9C2.9,7.6,3.9,6.2,5,5c1.2-1.2,2.5-2.2,4-2.9c1.5-0.7,3-1.2,4.8-1.6
		c1.9-0.4,4-0.5,5.7-0.5C20.5,0,21.4,0,22.4,0l3.4,0L468,0"/>
	<g>
		<g>
			<path fill-rule="evenodd" clip-rule="evenodd" fill="#F8981D" d="M204.1,122.1c-16.5,12.2-40.5,18.7-61.2,18.7
				c-29,0-55-10.7-74.8-28.5c-1.5-1.4-0.2-3.3,1.7-2.2c21.3,12.4,47.6,19.8,74.8,19.8c18.3,0,38.5-3.8,57.1-11.7
				C204.5,117.1,206.8,120.1,204.1,122.1z"/>
			<path fill-rule="evenodd" clip-rule="evenodd" fill="#F8981D" d="M211,114.3c-2.1-2.7-14-1.3-19.3-0.6c-1.6,0.2-1.9-1.2-0.4-2.2
				c9.5-6.7,25-4.7,26.8-2.5c1.8,2.2-0.5,17.8-9.4,25.2c-1.4,1.1-2.7,0.5-2.1-1C208.6,128.2,213.1,117,211,114.3z"/>
		</g>
		<g>
			<path fill-rule="evenodd" clip-rule="evenodd" fill="#FFFFFF" d="M192,64.4v-6.5c0-1,0.7-1.6,1.6-1.6l29,0c0.9,0,1.7,0.7,1.7,1.6
				l0,5.5c0,0.9-0.8,2.1-2.2,4.1l-15,21.4c5.6-0.1,11.5,0.7,16.5,3.5c1.1,0.6,1.4,1.6,1.5,2.5v6.9c0,1-1,2.1-2.1,1.5
				c-8.9-4.7-20.8-5.2-30.6,0.1c-1,0.5-2.1-0.5-2.1-1.5v-6.6c0-1,0-2.8,1.1-4.4L208.8,66l-15.1,0C192.8,66,192,65.4,192,64.4z"/>
			<path fill-rule="evenodd" clip-rule="evenodd" fill="#FFFFFF" d="M86.3,104.8h-8.8c-0.8-0.1-1.5-0.7-1.6-1.5l0-45.2
				c0-0.9,0.8-1.6,1.7-1.6l8.2,0c0.9,0,1.5,0.7,1.6,1.5v5.9h0.2c2.1-5.7,6.2-8.4,11.6-8.4c5.5,0,9,2.7,11.4,8.4
				c2.1-5.7,7-8.4,12.2-8.4c3.7,0,7.7,1.5,10.2,5c2.8,3.8,2.2,9.3,2.2,14.2l0,28.6c0,0.9-0.8,1.6-1.7,1.6h-8.8
				c-0.9-0.1-1.6-0.8-1.6-1.6l0-24c0-1.9,0.2-6.7-0.2-8.5c-0.7-3-2.6-3.9-5.2-3.9c-2.1,0-4.4,1.4-5.3,3.7c-0.9,2.3-0.8,6.1-0.8,8.7
				v24c0,0.9-0.8,1.6-1.7,1.6h-8.8c-0.9-0.1-1.6-0.8-1.6-1.6l0-24c0-5,0.8-12.5-5.4-12.5c-6.3,0-6.1,7.2-6.1,12.5l0,24
				C88,104.1,87.3,104.8,86.3,104.8z"/>
			<path fill-rule="evenodd" clip-rule="evenodd" fill="#FFFFFF" d="M249.3,55.5c13.1,0,20.2,11.2,20.2,25.5
				c0,13.8-7.8,24.8-20.2,24.8c-12.8,0-19.8-11.2-19.8-25.2C229.4,66.4,236.5,55.5,249.3,55.5z M249.3,64.7c-6.5,0-6.9,8.9-6.9,14.4
				c0,5.5-0.1,17.3,6.8,17.3c6.8,0,7.2-9.5,7.2-15.3c0-3.8-0.2-8.4-1.3-12C254.1,65.9,252.1,64.7,249.3,64.7z"/>
			<path fill-rule="evenodd" clip-rule="evenodd" fill="#FFFFFF" d="M286.4,104.8h-8.8c-0.9-0.1-1.6-0.8-1.6-1.6l0-45.3
				c0.1-0.8,0.8-1.5,1.7-1.5l8.2,0c0.8,0,1.4,0.6,1.6,1.3v6.9h0.2c2.5-6.2,5.9-9.1,12-9.1c3.9,0,7.8,1.4,10.3,5.3
				c2.3,3.6,2.3,9.7,2.3,14.1v28.5c-0.1,0.8-0.8,1.4-1.7,1.4h-8.8c-0.8-0.1-1.5-0.7-1.6-1.4V78.8c0-5,0.6-12.2-5.5-12.2
				c-2.1,0-4.1,1.4-5.1,3.6c-1.2,2.8-1.4,5.5-1.4,8.6v24.4C288.1,104.1,287.3,104.8,286.4,104.8z"/>
			<ellipse fill-rule="evenodd" clip-rule="evenodd" fill="#FFFFFF" cx="322.1" cy="101.2" rx="4.3" ry="4.1"/>
			<path fill="#FFFFFF" d="M411.1,104.8c-0.9,0-1.6-0.7-1.6-1.6V57.9c0.1-0.8,0.7-1.4,1.6-1.5l3.2,0c0.9,0,1.6,0.7,1.7,1.5v6.6
				c2.3-5.2,6.6-9.3,12-9.3l0.3,0l0.3,0c5.7,0,10,4.2,11.5,10.4c2.4-6.1,7-10.4,13.1-10.4l0.3,0l0.4,0c4.3,0,8.4,2.8,10.5,7
				c2.1,4,2,9.3,2,13.8l0,27.2c0,0.9-0.7,1.6-1.6,1.6H461c-0.8,0-1.5-0.6-1.6-1.4V75.9c0-3.2,0.2-6.7-1.2-9.6c-1.3-3-3.9-4.9-6.7-5
				c-3.1,0.2-5.9,2.4-7.7,5.4c-2.4,3.9-2.3,7.4-2.3,12v24.7c-0.1,0.8-0.8,1.3-1.6,1.4h-3.9c-0.9,0-1.6-0.7-1.6-1.6l0-29
				c0-2.7-0.2-5.8-1.4-8.2c-1.4-2.7-4-4.5-6.7-4.7c-2.8,0.2-5.6,2.3-7.2,4.8c-2.1,3.1-2.6,7-2.6,11l0,26.1c0,0.9-0.7,1.6-1.6,1.6
				H411.1z"/>
			<path fill="#FFFFFF" d="M384.6,105.7c-12.5,0-18.1-12.8-18.1-25.5c0-13.4,6.6-25,19.2-25l0.3,0l0.3,0c12.3,0,18.4,12.4,18.4,25.1
				c0,13.5-6.7,25.4-19.4,25.4l-0.3,0L384.6,105.7z M385.5,99.5c4.1-0.1,7.4-2.7,9.3-6.9c1.7-3.8,2.1-8.2,2.1-12.4
				c0-4.6-0.5-9.3-2.6-13.2c-1.9-3.4-5.2-5.6-8.7-5.7c-3.9,0.1-7.4,2.8-9.1,6.8c-1.6,3.5-2.1,8.2-2.1,12.1c0,4.4,0.6,9.4,2.4,13.2
				C378.4,97.1,381.8,99.4,385.5,99.5z"/>
			<path fill="#FFFFFF" d="M345.5,99.4c5.6-0.2,8.6-4.7,9.8-10.5c0.2-0.7,0.8-1.3,1.6-1.3l3.7,0c0.9,0,1.7,0.7,1.6,1.5
				c-1.7,9.9-7.7,16.7-16.2,16.7l-0.3,0l-0.3,0c-12.4,0-17.8-12.5-17.8-25.1c0-12.6,5.4-25.4,17.9-25.4l0.3,0l0.3,0
				c8.6,0,14.8,6.6,16.1,16.6c0,0.7-0.7,1.4-1.5,1.5l-3.9,0c-0.8-0.1-1.3-0.8-1.5-1.6c-0.9-5.5-4.1-10-9.4-10.1
				c-8.4,0.3-10.9,10.7-10.9,18.7C335,87.8,337,99.1,345.5,99.4z"/>
			<path fill-rule="evenodd" clip-rule="evenodd" fill="#FFFFFF" d="M168.9,83.2c0,3.4,0.1,6.3-1.6,9.4c-1.4,2.5-3.6,4-6.1,4
				c-3.4,0-5.4-2.6-5.4-6.4c0-7.5,6.7-8.9,13.1-8.9V83.2z M177.8,104.7c-0.6,0.5-1.4,0.6-2.1,0.2c-2.9-2.4-3.5-3.6-5.1-5.9
				c-4.8,4.9-8.3,6.4-14.5,6.4c-7.4,0-13.2-4.6-13.2-13.7c0-7.2,3.9-12,9.4-14.4c4.8-2.1,11.5-2.5,16.6-3.1v-1.1
				c0-2.1,0.2-4.6-1.1-6.4c-1.1-1.6-3.1-2.3-4.9-2.3c-3.4,0-6.4,1.7-7.1,5.3c-0.2,0.8-0.7,1.6-1.5,1.6l-8.5-0.9
				c-0.7-0.2-1.5-0.7-1.3-1.8c2-10.4,11.3-13.5,19.7-13.5c4.3,0,9.9,1.1,13.3,4.4c4.3,4,3.9,9.4,3.9,15.2v13.7
				c0,4.1,1.7,5.9,3.3,8.2c0.6,0.8,0.7,1.8,0,2.3C182.8,100.3,179.6,103.1,177.8,104.7L177.8,104.7z"/>
			<path fill-rule="evenodd" clip-rule="evenodd" fill="#FFFFFF" d="M53.4,83.2c0,3.4,0.1,6.3-1.6,9.4c-1.4,2.5-3.6,4-6.1,4
				c-3.4,0-5.4-2.6-5.4-6.4c0-7.5,6.7-8.9,13.1-8.9V83.2z M62.2,104.7c-0.6,0.5-1.4,0.6-2.1,0.2c-2.9-2.4-3.5-3.6-5.1-5.9
				c-4.8,4.9-8.3,6.4-14.5,6.4c-7.4,0-13.2-4.6-13.2-13.7c0-7.2,3.9-12,9.4-14.4c4.8-2.1,11.5-2.5,16.6-3.1v-1.1
				c0-2.1,0.2-4.6-1.1-6.4c-1.1-1.6-3.1-2.3-4.9-2.3c-3.4,0-6.4,1.7-7.1,5.3c-0.2,0.8-0.7,1.6-1.5,1.6l-8.5-0.9
				c-0.7-0.2-1.5-0.7-1.3-1.8C30.8,58.2,40.2,55,48.6,55c4.3,0,9.9,1.1,13.3,4.4c4.3,4,3.9,9.4,3.9,15.2v13.7c0,4.1,1.7,5.9,3.3,8.2
				c0.6,0.8,0.7,1.8,0,2.3C67.2,100.3,64,103.1,62.2,104.7L62.2,104.7z"/>
		</g>
	</g>
</g>
</svg>
